<svg viewBox="0 0 512 512" xmlns="http://www.w3.org/2000/svg">
  <defs>
    <linearGradient id="holoGradient" x1="0%" y1="0%" x2="100%" y2="100%">
      <stop offset="0%" stop-color="#00f0ff"/>
      <stop offset="25%" stop-color="#7c3aed"/>
      <stop offset="50%" stop-color="#f0abfc"/>
      <stop offset="75%" stop-color="#3b82f6"/>
      <stop offset="100%" stop-color="#00f0ff"/>
    </linearGradient>
    <radialGradient id="coreGlow" cx="50%" cy="50%" r="50%">
      <stop offset="0%" stop-color="#ffffff"/>
      <stop offset="40%" stop-color="#00f0ff"/>
      <stop offset="100%" stop-color="#7c3aed" stop-opacity="0"/>
    </radialGradient>
    <linearGradient id="wingFlow" x1="0%" y1="0%" x2="100%" y2="0%">
      <stop offset="0%" stop-color="#00f0ff" stop-opacity="0.2"/>
      <stop offset="50%" stop-color="#7c3aed"/>
      <stop offset="100%" stop-color="#00f0ff" stop-opacity="0.2"/>
    </linearGradient>
    <filter id="nodeGlow" x="-50%" y="-50%" width="200%" height="200%">
      <feGaussianBlur stdDeviation="3" result="blur"/>
      <feMerge>
        <feMergeNode in="blur"/>
        <feMergeNode in="SourceGraphic"/>
      </feMerge>
    </filter>
  </defs>
  
  <!-- Wings -->
  <path d="M200 200 Q120 160 64 176 Q48 200 56 240 Q64 280 120 296 Q160 304 192 280" fill="url(#wingFlow)" stroke="url(#holoGradient)" stroke-width="2"/>
  <path d="M192 288 Q128 296 80 320 Q64 344 80 376 Q112 392 168 368 Q200 344 200 312" fill="url(#wingFlow)" stroke="url(#holoGradient)" stroke-width="2"/>
  <path d="M312 200 Q392 160 448 176 Q464 200 456 240 Q448 280 392 296 Q352 304 320 280" fill="url(#wingFlow)" stroke="url(#holoGradient)" stroke-width="2"/>
  <path d="M320 288 Q384 296 432 320 Q448 344 432 376 Q400 392 344 368 Q312 344 312 312" fill="url(#wingFlow)" stroke="url(#holoGradient)" stroke-width="2"/>
  
  <!-- Wing data streams -->
  <g stroke="url(#holoGradient)" stroke-width="1.5" fill="none" opacity="0.8">
    <path d="M192 220 Q140 200 80 208"/>
    <path d="M188 248 Q120 240 64 248"/>
    <path d="M184 276 Q136 284 96 280"/>
    <path d="M188 304 Q144 320 96 336"/>
    <path d="M180 332 Q140 352 112 368"/>
    <path d="M320 220 Q372 200 432 208"/>
    <path d="M324 248 Q392 240 448 248"/>
    <path d="M328 276 Q376 284 416 280"/>
    <path d="M324 304 Q368 320 416 336"/>
    <path d="M332 332 Q372 352 400 368"/>
  </g>
  
  <!-- Neural nodes on wings -->
  <g fill="url(#holoGradient)" filter="url(#nodeGlow)">
    <circle cx="80" cy="208" r="5"/>
    <circle cx="64" cy="248" r="4"/>
    <circle cx="96" cy="280" r="5"/>
    <circle cx="96" cy="336" r="4"/>
    <circle cx="112" cy="368" r="5"/>
    <circle cx="136" cy="232" r="3"/>
    <circle cx="128" cy="296" r="3"/>
    <circle cx="432" cy="208" r="5"/>
    <circle cx="448" cy="248" r="4"/>
    <circle cx="416" cy="280" r="5"/>
    <circle cx="416" cy="336" r="4"/>
    <circle cx="400" cy="368" r="5"/>
    <circle cx="376" cy="232" r="3"/>
    <circle cx="384" cy="296" r="3"/>
  </g>
  
  <!-- Antennae -->
  <g stroke="url(#holoGradient)" stroke-width="3" stroke-linecap="round" fill="none">
    <path d="M232 112 Q216 80 200 48"/>
    <path d="M280 112 Q296 80 312 48"/>
  </g>
  <g fill="url(#holoGradient)" filter="url(#nodeGlow)">
    <circle cx="200" cy="48" r="8"/>
    <circle cx="312" cy="48" r="8"/>
    <circle cx="208" cy="72" r="4"/>
    <circle cx="304" cy="72" r="4"/>
  </g>
  
  <!-- Head -->
  <ellipse cx="256" cy="136" rx="56" ry="48" fill="url(#holoGradient)" opacity="0.9"/>
  <ellipse cx="256" cy="136" rx="32" ry="28" fill="url(#coreGlow)"/>
  <circle cx="256" cy="136" r="12" fill="#ffffff" filter="url(#nodeGlow)"/>
  
  <!-- Thorax -->
  <path d="M200 168 Q200 200 208 240 Q216 280 256 296 Q296 280 304 240 Q312 200 312 168 Q288 176 256 176 Q224 176 200 168" fill="url(#holoGradient)" opacity="0.85"/>
  
  <!-- Body neural pattern -->
  <g stroke="#ffffff" stroke-width="1" fill="none" opacity="0.5">
    <path d="M232 192 L256 208 L280 192"/>
    <path d="M224 224 L256 240 L288 224"/>
    <path d="M240 256 L256 272 L272 256"/>
  </g>
  <g fill="#ffffff" opacity="0.8">
    <circle cx="256" cy="208" r="4"/>
    <circle cx="256" cy="240" r="4"/>
    <circle cx="256" cy="272" r="3"/>
    <circle cx="232" cy="192" r="2"/>
    <circle cx="280" cy="192" r="2"/>
  </g>
  
  <!-- Abdomen -->
  <path d="M232 296 Q232 336 248 376 L256 400 L264 376 Q280 336 280 296" fill="url(#holoGradient)" opacity="0.8"/>
  <g stroke="#ffffff" stroke-width="2" opacity="0.6">
    <path d="M236 312 Q256 320 276 312"/>
    <path d="M244 344 Q256 352 268 344"/>
    <path d="M252 376 Q256 380 260 376"/>
  </g>
  
  <!-- Stinger -->
  <path d="M256 400 L248 416 L256 456 L264 416 Z" fill="url(#holoGradient)"/>
  <circle cx="256" cy="432" r="3" fill="#ffffff" filter="url(#nodeGlow)"/>
  
  <!-- Ambient particles -->
  <g fill="url(#holoGradient)" opacity="0.6">
    <circle cx="168" cy="168" r="2"/>
    <circle cx="344" cy="168" r="2"/>
    <circle cx="144" cy="256" r="2"/>
    <circle cx="368" cy="256" r="2"/>
    <circle cx="176" cy="392" r="2"/>
    <circle cx="336" cy="392" r="2"/>
  </g>
</svg>
